<mxfile host="Electron" modified="2024-03-29T16:40:59.219Z" agent="Mozilla/5.0 (Windows NT 10.0; Win64; x64) AppleWebKit/537.36 (KHTML, like Gecko) draw.io/24.0.4 Chrome/120.0.6099.109 Electron/28.1.0 Safari/537.36" etag="IB1RV5KoBiMu3fwQRNuc" version="24.0.4" type="device">
  <diagram name="第 1 页" id="NxBG-FStXV3GmASRmdr9">
    <mxGraphModel dx="2074" dy="1205" grid="1" gridSize="10" guides="1" tooltips="1" connect="1" arrows="1" fold="1" page="1" pageScale="1" pageWidth="1100" pageHeight="850" math="0" shadow="0">
      <root>
        <mxCell id="0" />
        <mxCell id="1" parent="0" />
        <mxCell id="8-x5uXMspNHC_fB0zWoQ-1" value="&lt;div style=&quot;font-family: Consolas, &amp;quot;Courier New&amp;quot;, monospace; font-size: 14px; line-height: 19px; white-space: pre;&quot;&gt;MixtralModel&lt;/div&gt;&lt;div style=&quot;font-family: Consolas, &amp;quot;Courier New&amp;quot;, monospace; font-size: 14px; line-height: 19px; white-space: pre;&quot;&gt;(MixtralPreTrainedModel).&lt;/div&gt;&lt;div style=&quot;font-family: Consolas, &amp;quot;Courier New&amp;quot;, monospace; font-size: 14px; line-height: 19px; white-space: pre;&quot;&gt;forward(input_ids)&lt;/div&gt;" style="rounded=1;whiteSpace=wrap;html=1;align=left;labelBackgroundColor=none;fillColor=#cdeb8b;strokeColor=#36393d;" vertex="1" parent="1">
          <mxGeometry x="40" y="345" width="200" height="60" as="geometry" />
        </mxCell>
        <mxCell id="8-x5uXMspNHC_fB0zWoQ-68" style="edgeStyle=orthogonalEdgeStyle;rounded=0;orthogonalLoop=1;jettySize=auto;html=1;entryX=0;entryY=0.75;entryDx=0;entryDy=0;strokeColor=default;strokeWidth=2;align=center;verticalAlign=middle;fontFamily=Helvetica;fontSize=11;fontColor=default;labelBackgroundColor=default;endArrow=classic;" edge="1" parent="1" source="8-x5uXMspNHC_fB0zWoQ-2" target="8-x5uXMspNHC_fB0zWoQ-8">
          <mxGeometry relative="1" as="geometry">
            <Array as="points">
              <mxPoint x="280" y="55" />
              <mxPoint x="280" y="373" />
            </Array>
          </mxGeometry>
        </mxCell>
        <mxCell id="8-x5uXMspNHC_fB0zWoQ-2" value="&lt;div style=&quot;font-family: Consolas, &amp;quot;Courier New&amp;quot;, monospace; font-size: 14px; line-height: 19px; white-space: pre;&quot;&gt;get `batch_size` &lt;span style=&quot;background-color: initial;&quot;&gt;and `seq_length`&lt;/span&gt;&lt;/div&gt;" style="rounded=1;whiteSpace=wrap;html=1;labelBackgroundColor=none;fillColor=#cdeb8b;strokeColor=#36393d;" vertex="1" parent="1">
          <mxGeometry x="330" y="40" width="260" height="30" as="geometry" />
        </mxCell>
        <mxCell id="8-x5uXMspNHC_fB0zWoQ-3" value="&lt;div style=&quot;font-family: Consolas, &amp;quot;Courier New&amp;quot;, monospace; font-size: 14px; line-height: 19px; white-space: pre;&quot;&gt;get `past_key_values`&lt;/div&gt;" style="rounded=1;whiteSpace=wrap;html=1;labelBackgroundColor=none;align=left;fillColor=#cdeb8b;strokeColor=#36393d;" vertex="1" parent="1">
          <mxGeometry x="411" y="70" width="180" height="30" as="geometry" />
        </mxCell>
        <mxCell id="8-x5uXMspNHC_fB0zWoQ-7" style="edgeStyle=orthogonalEdgeStyle;rounded=0;orthogonalLoop=1;jettySize=auto;html=1;entryX=0.5;entryY=0;entryDx=0;entryDy=0;strokeWidth=2;" edge="1" parent="1" source="8-x5uXMspNHC_fB0zWoQ-4" target="8-x5uXMspNHC_fB0zWoQ-6">
          <mxGeometry relative="1" as="geometry" />
        </mxCell>
        <mxCell id="8-x5uXMspNHC_fB0zWoQ-4" value="&lt;div style=&quot;font-family: Consolas, &amp;quot;Courier New&amp;quot;, monospace; font-size: 14px; line-height: 19px; white-space: pre;&quot;&gt;nn.Embedding()&lt;/div&gt;" style="rounded=1;whiteSpace=wrap;html=1;labelBackgroundColor=none;fillColor=#cce5ff;strokeColor=#36393d;" vertex="1" parent="1">
          <mxGeometry x="421" y="200" width="120" height="30" as="geometry" />
        </mxCell>
        <mxCell id="8-x5uXMspNHC_fB0zWoQ-10" style="edgeStyle=orthogonalEdgeStyle;rounded=0;orthogonalLoop=1;jettySize=auto;html=1;entryX=0.5;entryY=0;entryDx=0;entryDy=0;strokeColor=default;strokeWidth=2;align=center;verticalAlign=middle;fontFamily=Helvetica;fontSize=11;fontColor=default;labelBackgroundColor=default;endArrow=classic;" edge="1" parent="1" source="8-x5uXMspNHC_fB0zWoQ-6" target="8-x5uXMspNHC_fB0zWoQ-8">
          <mxGeometry relative="1" as="geometry" />
        </mxCell>
        <mxCell id="8-x5uXMspNHC_fB0zWoQ-6" value="&lt;span style=&quot;font-family: Consolas, &amp;quot;Courier New&amp;quot;, monospace; font-size: 14px; font-style: normal; font-variant-ligatures: normal; font-variant-caps: normal; font-weight: 400; letter-spacing: normal; orphans: 2; text-align: left; text-indent: 0px; text-transform: none; widows: 2; word-spacing: 0px; -webkit-text-stroke-width: 0px; white-space: pre; text-decoration-thickness: initial; text-decoration-style: initial; text-decoration-color: initial; float: none; display: inline !important;&quot;&gt;inputs_embeds&lt;/span&gt;" style="rounded=1;whiteSpace=wrap;html=1;labelBackgroundColor=none;fillColor=#ffff88;strokeColor=#36393d;" vertex="1" parent="1">
          <mxGeometry x="431" y="280" width="100" height="30" as="geometry" />
        </mxCell>
        <mxCell id="8-x5uXMspNHC_fB0zWoQ-23" style="edgeStyle=orthogonalEdgeStyle;rounded=0;orthogonalLoop=1;jettySize=auto;html=1;entryX=0.5;entryY=0;entryDx=0;entryDy=0;strokeColor=default;strokeWidth=2;align=center;verticalAlign=middle;fontFamily=Helvetica;fontSize=11;fontColor=default;labelBackgroundColor=default;endArrow=classic;" edge="1" parent="1" source="8-x5uXMspNHC_fB0zWoQ-8" target="8-x5uXMspNHC_fB0zWoQ-16">
          <mxGeometry relative="1" as="geometry" />
        </mxCell>
        <mxCell id="8-x5uXMspNHC_fB0zWoQ-8" value="&lt;div style=&quot;font-family: Consolas, &amp;quot;Courier New&amp;quot;, monospace; font-size: 14px; line-height: 19px; white-space: pre;&quot;&gt;get `attention_mask`&lt;/div&gt;" style="rounded=1;whiteSpace=wrap;html=1;labelBackgroundColor=none;fillColor=#cdeb8b;strokeColor=#36393d;" vertex="1" parent="1">
          <mxGeometry x="401" y="350" width="160" height="30" as="geometry" />
        </mxCell>
        <mxCell id="8-x5uXMspNHC_fB0zWoQ-69" style="edgeStyle=orthogonalEdgeStyle;rounded=0;orthogonalLoop=1;jettySize=auto;html=1;entryX=0;entryY=0.5;entryDx=0;entryDy=0;strokeColor=default;strokeWidth=2;align=center;verticalAlign=middle;fontFamily=Helvetica;fontSize=11;fontColor=default;labelBackgroundColor=default;endArrow=classic;" edge="1" parent="1" source="8-x5uXMspNHC_fB0zWoQ-12" target="8-x5uXMspNHC_fB0zWoQ-8">
          <mxGeometry relative="1" as="geometry">
            <Array as="points">
              <mxPoint x="300" y="115" />
              <mxPoint x="300" y="365" />
            </Array>
          </mxGeometry>
        </mxCell>
        <mxCell id="8-x5uXMspNHC_fB0zWoQ-12" value="&lt;span style=&quot;font-family: Consolas, &amp;quot;Courier New&amp;quot;, monospace; font-size: 14px; white-space: pre;&quot;&gt;get `past_key_values_length`&lt;/span&gt;" style="rounded=1;whiteSpace=wrap;html=1;fontFamily=Helvetica;fontSize=11;labelBackgroundColor=none;fillColor=#cdeb8b;strokeColor=#36393d;" vertex="1" parent="1">
          <mxGeometry x="371" y="100" width="220" height="30" as="geometry" />
        </mxCell>
        <mxCell id="8-x5uXMspNHC_fB0zWoQ-13" value="&lt;span style=&quot;font-family: Consolas, &amp;quot;Courier New&amp;quot;, monospace; font-size: 14px; white-space: pre;&quot;&gt;get &lt;/span&gt;&lt;span style=&quot;font-family: Consolas, &amp;quot;Courier New&amp;quot;, monospace; font-size: 14px; white-space: pre;&quot;&gt;`position_ids`&lt;/span&gt;" style="rounded=1;whiteSpace=wrap;html=1;fontFamily=Helvetica;fontSize=11;labelBackgroundColor=none;align=left;fillColor=#cdeb8b;strokeColor=#36393d;" vertex="1" parent="1">
          <mxGeometry x="450" y="130" width="140" height="30" as="geometry" />
        </mxCell>
        <mxCell id="8-x5uXMspNHC_fB0zWoQ-71" style="edgeStyle=orthogonalEdgeStyle;rounded=0;orthogonalLoop=1;jettySize=auto;html=1;entryX=0.5;entryY=0;entryDx=0;entryDy=0;strokeColor=default;strokeWidth=2;align=center;verticalAlign=middle;fontFamily=Helvetica;fontSize=11;fontColor=default;labelBackgroundColor=default;endArrow=classic;" edge="1" parent="1" source="8-x5uXMspNHC_fB0zWoQ-16" target="8-x5uXMspNHC_fB0zWoQ-20">
          <mxGeometry relative="1" as="geometry" />
        </mxCell>
        <mxCell id="8-x5uXMspNHC_fB0zWoQ-16" value="&lt;span style=&quot;font-family: Consolas, &amp;quot;Courier New&amp;quot;, monospace; font-size: 14px; font-style: normal; font-variant-ligatures: normal; font-variant-caps: normal; font-weight: 400; letter-spacing: normal; orphans: 2; text-align: left; text-indent: 0px; text-transform: none; widows: 2; word-spacing: 0px; -webkit-text-stroke-width: 0px; white-space: pre; text-decoration-thickness: initial; text-decoration-style: initial; text-decoration-color: initial; float: none; display: inline !important;&quot;&gt;hidden_states = inputs_embeds&lt;/span&gt;" style="rounded=1;whiteSpace=wrap;html=1;labelBackgroundColor=none;fillColor=#ffff88;strokeColor=#36393d;" vertex="1" parent="1">
          <mxGeometry x="361" y="420" width="240" height="30" as="geometry" />
        </mxCell>
        <mxCell id="8-x5uXMspNHC_fB0zWoQ-72" style="edgeStyle=orthogonalEdgeStyle;rounded=0;orthogonalLoop=1;jettySize=auto;html=1;entryX=0.5;entryY=0;entryDx=0;entryDy=0;strokeColor=default;strokeWidth=2;align=center;verticalAlign=middle;fontFamily=Helvetica;fontSize=11;fontColor=default;labelBackgroundColor=default;endArrow=classic;" edge="1" parent="1" source="8-x5uXMspNHC_fB0zWoQ-20" target="8-x5uXMspNHC_fB0zWoQ-25">
          <mxGeometry relative="1" as="geometry" />
        </mxCell>
        <mxCell id="8-x5uXMspNHC_fB0zWoQ-20" value="&lt;div style=&quot;font-family: Consolas, &amp;quot;Courier New&amp;quot;, monospace; font-size: 14px; line-height: 19px; white-space: pre;&quot;&gt;&lt;div&gt;layer_outputs = MixtralDecoderLayer(config, layer_idx)&lt;/div&gt;&lt;div&gt;.forward(hidden_states,attention_mask,position_ids,&lt;/div&gt;&lt;div&gt;past_key_values,...)&lt;/div&gt;&lt;div&gt;hidden_states = layer_outputs[&lt;span style=&quot;&quot;&gt;0&lt;/span&gt;]&lt;/div&gt;&lt;/div&gt;" style="rounded=1;whiteSpace=wrap;html=1;fontFamily=Helvetica;fontSize=11;labelBackgroundColor=none;align=left;fillColor=#cce5ff;strokeColor=#36393d;" vertex="1" parent="1">
          <mxGeometry x="271" y="490" width="420" height="80" as="geometry" />
        </mxCell>
        <mxCell id="8-x5uXMspNHC_fB0zWoQ-30" style="edgeStyle=orthogonalEdgeStyle;rounded=0;orthogonalLoop=1;jettySize=auto;html=1;entryX=0.5;entryY=0;entryDx=0;entryDy=0;strokeColor=default;strokeWidth=2;align=center;verticalAlign=middle;fontFamily=Helvetica;fontSize=11;fontColor=default;labelBackgroundColor=default;endArrow=classic;" edge="1" parent="1" source="8-x5uXMspNHC_fB0zWoQ-25" target="8-x5uXMspNHC_fB0zWoQ-29">
          <mxGeometry relative="1" as="geometry" />
        </mxCell>
        <mxCell id="8-x5uXMspNHC_fB0zWoQ-25" value="&lt;div style=&quot;font-family: Consolas, &amp;quot;Courier New&amp;quot;, monospace; font-size: 14px; line-height: 19px; white-space: pre;&quot;&gt;MixtralRMSNorm()&lt;/div&gt;" style="rounded=1;whiteSpace=wrap;html=1;fontFamily=Helvetica;fontSize=11;labelBackgroundColor=none;fillColor=#cce5ff;strokeColor=#36393d;" vertex="1" parent="1">
          <mxGeometry x="411" y="610" width="140" height="30" as="geometry" />
        </mxCell>
        <mxCell id="8-x5uXMspNHC_fB0zWoQ-29" value="&lt;div style=&quot;font-family: Consolas, &amp;quot;Courier New&amp;quot;, monospace; font-size: 14px; line-height: 19px; white-space: pre;&quot;&gt;return&lt;/div&gt;" style="rounded=1;whiteSpace=wrap;html=1;fontFamily=Helvetica;fontSize=11;labelBackgroundColor=none;fillColor=#ffff88;strokeColor=#36393d;" vertex="1" parent="1">
          <mxGeometry x="446" y="680" width="70" height="30" as="geometry" />
        </mxCell>
        <mxCell id="8-x5uXMspNHC_fB0zWoQ-31" value="&lt;div style=&quot;font-family: Consolas, &amp;quot;Courier New&amp;quot;, monospace; font-size: 14px; line-height: 19px; white-space: pre;&quot;&gt;num_hidden_layers&lt;/div&gt;" style="rounded=1;whiteSpace=wrap;html=1;fontFamily=Helvetica;fontSize=11;fontColor=default;labelBackgroundColor=default;" vertex="1" parent="1">
          <mxGeometry x="110" y="520" width="140" height="30" as="geometry" />
        </mxCell>
        <mxCell id="8-x5uXMspNHC_fB0zWoQ-32" value="&lt;font style=&quot;font-size: 15px;&quot;&gt;X&lt;/font&gt;" style="text;html=1;align=center;verticalAlign=middle;whiteSpace=wrap;rounded=0;fontFamily=Helvetica;fontSize=11;fontColor=default;labelBackgroundColor=default;" vertex="1" parent="1">
          <mxGeometry x="234" y="520" width="60" height="30" as="geometry" />
        </mxCell>
        <mxCell id="8-x5uXMspNHC_fB0zWoQ-34" value="" style="shape=curlyBracket;whiteSpace=wrap;html=1;rounded=1;labelPosition=left;verticalLabelPosition=middle;align=right;verticalAlign=middle;fontFamily=Helvetica;fontSize=11;fontColor=default;labelBackgroundColor=default;strokeWidth=2;" vertex="1" parent="1">
          <mxGeometry x="240" y="40" width="30" height="680" as="geometry" />
        </mxCell>
        <mxCell id="8-x5uXMspNHC_fB0zWoQ-70" style="edgeStyle=orthogonalEdgeStyle;rounded=0;orthogonalLoop=1;jettySize=auto;html=1;entryX=0;entryY=0.25;entryDx=0;entryDy=0;strokeColor=default;strokeWidth=2;align=center;verticalAlign=middle;fontFamily=Helvetica;fontSize=11;fontColor=default;labelBackgroundColor=default;endArrow=classic;" edge="1" parent="1" source="8-x5uXMspNHC_fB0zWoQ-37" target="8-x5uXMspNHC_fB0zWoQ-8">
          <mxGeometry relative="1" as="geometry" />
        </mxCell>
        <mxCell id="8-x5uXMspNHC_fB0zWoQ-37" value="&lt;div style=&quot;font-family: Consolas, &amp;quot;Courier New&amp;quot;, monospace; font-size: 14px; line-height: 19px; white-space: pre;&quot;&gt;sliding_window&lt;/div&gt;" style="rounded=1;whiteSpace=wrap;html=1;fontFamily=Helvetica;fontSize=11;labelBackgroundColor=none;fillColor=#ffff88;strokeColor=#36393d;" vertex="1" parent="1">
          <mxGeometry x="321" y="240" width="110" height="30" as="geometry" />
        </mxCell>
        <mxCell id="8-x5uXMspNHC_fB0zWoQ-48" style="edgeStyle=orthogonalEdgeStyle;rounded=0;orthogonalLoop=1;jettySize=auto;html=1;entryX=1;entryY=0.5;entryDx=0;entryDy=0;strokeColor=default;strokeWidth=2;align=center;verticalAlign=middle;fontFamily=Helvetica;fontSize=11;fontColor=default;labelBackgroundColor=default;endArrow=classic;" edge="1" parent="1" source="8-x5uXMspNHC_fB0zWoQ-42" target="8-x5uXMspNHC_fB0zWoQ-46">
          <mxGeometry relative="1" as="geometry">
            <Array as="points">
              <mxPoint x="980" y="239" />
              <mxPoint x="980" y="449" />
            </Array>
          </mxGeometry>
        </mxCell>
        <mxCell id="8-x5uXMspNHC_fB0zWoQ-49" style="edgeStyle=orthogonalEdgeStyle;rounded=0;orthogonalLoop=1;jettySize=auto;html=1;entryX=0.5;entryY=0;entryDx=0;entryDy=0;strokeColor=default;strokeWidth=2;align=center;verticalAlign=middle;fontFamily=Helvetica;fontSize=11;fontColor=default;labelBackgroundColor=default;endArrow=classic;" edge="1" parent="1" source="8-x5uXMspNHC_fB0zWoQ-42" target="8-x5uXMspNHC_fB0zWoQ-43">
          <mxGeometry relative="1" as="geometry" />
        </mxCell>
        <mxCell id="8-x5uXMspNHC_fB0zWoQ-42" value="&lt;div style=&quot;font-family: Consolas, &amp;quot;Courier New&amp;quot;, monospace; font-size: 14px; line-height: 19px; white-space: pre;&quot;&gt;&lt;span style=&quot;text-align: left;&quot;&gt;hidden_states&lt;/span&gt;&lt;br&gt;&lt;/div&gt;" style="rounded=1;whiteSpace=wrap;html=1;fontFamily=Helvetica;fontSize=11;labelBackgroundColor=none;fillColor=#ffff88;strokeColor=#36393d;" vertex="1" parent="1">
          <mxGeometry x="800" y="224" width="100" height="30" as="geometry" />
        </mxCell>
        <mxCell id="8-x5uXMspNHC_fB0zWoQ-50" style="edgeStyle=orthogonalEdgeStyle;rounded=0;orthogonalLoop=1;jettySize=auto;html=1;entryX=0.5;entryY=0;entryDx=0;entryDy=0;strokeColor=default;strokeWidth=2;align=center;verticalAlign=middle;fontFamily=Helvetica;fontSize=11;fontColor=default;labelBackgroundColor=default;endArrow=classic;" edge="1" parent="1" source="8-x5uXMspNHC_fB0zWoQ-43" target="8-x5uXMspNHC_fB0zWoQ-45">
          <mxGeometry relative="1" as="geometry" />
        </mxCell>
        <mxCell id="8-x5uXMspNHC_fB0zWoQ-43" value="&lt;div style=&quot;font-family: Consolas, &amp;quot;Courier New&amp;quot;, monospace; font-size: 14px; line-height: 19px; white-space: pre;&quot;&gt;MixtralRMSNorm()&lt;/div&gt;" style="rounded=1;whiteSpace=wrap;html=1;fontFamily=Helvetica;fontSize=11;labelBackgroundColor=none;fillColor=#cce5ff;strokeColor=#36393d;" vertex="1" parent="1">
          <mxGeometry x="780" y="294" width="140" height="30" as="geometry" />
        </mxCell>
        <mxCell id="8-x5uXMspNHC_fB0zWoQ-51" style="edgeStyle=orthogonalEdgeStyle;rounded=0;orthogonalLoop=1;jettySize=auto;html=1;entryX=0.5;entryY=0;entryDx=0;entryDy=0;strokeColor=default;strokeWidth=2;align=center;verticalAlign=middle;fontFamily=Helvetica;fontSize=11;fontColor=default;labelBackgroundColor=default;endArrow=classic;" edge="1" parent="1" source="8-x5uXMspNHC_fB0zWoQ-45" target="8-x5uXMspNHC_fB0zWoQ-46">
          <mxGeometry relative="1" as="geometry" />
        </mxCell>
        <mxCell id="8-x5uXMspNHC_fB0zWoQ-45" value="&lt;div style=&quot;font-family: Consolas, &amp;quot;Courier New&amp;quot;, monospace; font-size: 14px; line-height: 19px; white-space: pre;&quot;&gt;&lt;span style=&quot;text-align: left;&quot;&gt;MixtralAttention&lt;/span&gt;()&lt;/div&gt;" style="rounded=1;whiteSpace=wrap;html=1;fontFamily=Helvetica;fontSize=11;labelBackgroundColor=none;fillColor=#cce5ff;strokeColor=#36393d;fontColor=default;" vertex="1" parent="1">
          <mxGeometry x="780" y="364" width="140" height="30" as="geometry" />
        </mxCell>
        <mxCell id="8-x5uXMspNHC_fB0zWoQ-52" style="edgeStyle=orthogonalEdgeStyle;rounded=0;orthogonalLoop=1;jettySize=auto;html=1;entryX=0.5;entryY=0;entryDx=0;entryDy=0;strokeColor=default;strokeWidth=2;align=center;verticalAlign=middle;fontFamily=Helvetica;fontSize=11;fontColor=default;labelBackgroundColor=default;endArrow=classic;" edge="1" parent="1" source="8-x5uXMspNHC_fB0zWoQ-46" target="8-x5uXMspNHC_fB0zWoQ-47">
          <mxGeometry relative="1" as="geometry" />
        </mxCell>
        <mxCell id="8-x5uXMspNHC_fB0zWoQ-46" value="&lt;font style=&quot;font-size: 19px;&quot;&gt;+&lt;/font&gt;" style="ellipse;whiteSpace=wrap;html=1;aspect=fixed;fontFamily=Helvetica;fontSize=11;fontColor=default;labelBackgroundColor=default;" vertex="1" parent="1">
          <mxGeometry x="835" y="434" width="30" height="30" as="geometry" />
        </mxCell>
        <mxCell id="8-x5uXMspNHC_fB0zWoQ-54" style="edgeStyle=orthogonalEdgeStyle;rounded=0;orthogonalLoop=1;jettySize=auto;html=1;entryX=0.5;entryY=0;entryDx=0;entryDy=0;strokeColor=default;strokeWidth=2;align=center;verticalAlign=middle;fontFamily=Helvetica;fontSize=11;fontColor=default;labelBackgroundColor=default;endArrow=classic;" edge="1" parent="1" source="8-x5uXMspNHC_fB0zWoQ-47" target="8-x5uXMspNHC_fB0zWoQ-53">
          <mxGeometry relative="1" as="geometry" />
        </mxCell>
        <mxCell id="8-x5uXMspNHC_fB0zWoQ-60" style="edgeStyle=orthogonalEdgeStyle;rounded=0;orthogonalLoop=1;jettySize=auto;html=1;entryX=1;entryY=0.5;entryDx=0;entryDy=0;strokeColor=default;strokeWidth=2;align=center;verticalAlign=middle;fontFamily=Helvetica;fontSize=11;fontColor=default;labelBackgroundColor=default;endArrow=classic;" edge="1" parent="1" source="8-x5uXMspNHC_fB0zWoQ-47" target="8-x5uXMspNHC_fB0zWoQ-58">
          <mxGeometry relative="1" as="geometry">
            <Array as="points">
              <mxPoint x="980" y="519" />
              <mxPoint x="980" y="729" />
            </Array>
          </mxGeometry>
        </mxCell>
        <mxCell id="8-x5uXMspNHC_fB0zWoQ-47" value="&lt;div style=&quot;font-family: Consolas, &amp;quot;Courier New&amp;quot;, monospace; font-size: 14px; line-height: 19px; white-space: pre;&quot;&gt;&lt;span style=&quot;text-align: left;&quot;&gt;hidden_states&lt;/span&gt;&lt;br&gt;&lt;/div&gt;" style="rounded=1;whiteSpace=wrap;html=1;fontFamily=Helvetica;fontSize=11;labelBackgroundColor=none;fillColor=#ffff88;strokeColor=#36393d;" vertex="1" parent="1">
          <mxGeometry x="800" y="504" width="100" height="30" as="geometry" />
        </mxCell>
        <mxCell id="8-x5uXMspNHC_fB0zWoQ-57" style="edgeStyle=orthogonalEdgeStyle;rounded=0;orthogonalLoop=1;jettySize=auto;html=1;entryX=0.5;entryY=0;entryDx=0;entryDy=0;strokeColor=default;strokeWidth=2;align=center;verticalAlign=middle;fontFamily=Helvetica;fontSize=11;fontColor=default;labelBackgroundColor=default;endArrow=classic;" edge="1" parent="1" source="8-x5uXMspNHC_fB0zWoQ-53" target="8-x5uXMspNHC_fB0zWoQ-56">
          <mxGeometry relative="1" as="geometry" />
        </mxCell>
        <mxCell id="8-x5uXMspNHC_fB0zWoQ-53" value="&lt;div style=&quot;font-family: Consolas, &amp;quot;Courier New&amp;quot;, monospace; font-size: 14px; line-height: 19px; white-space: pre;&quot;&gt;MixtralRMSNorm()&lt;/div&gt;" style="rounded=1;whiteSpace=wrap;html=1;fontFamily=Helvetica;fontSize=11;labelBackgroundColor=none;fillColor=#cce5ff;strokeColor=#36393d;" vertex="1" parent="1">
          <mxGeometry x="780" y="574" width="140" height="30" as="geometry" />
        </mxCell>
        <mxCell id="8-x5uXMspNHC_fB0zWoQ-59" style="edgeStyle=orthogonalEdgeStyle;rounded=0;orthogonalLoop=1;jettySize=auto;html=1;entryX=0.5;entryY=0;entryDx=0;entryDy=0;strokeColor=default;strokeWidth=2;align=center;verticalAlign=middle;fontFamily=Helvetica;fontSize=11;fontColor=default;labelBackgroundColor=default;endArrow=classic;" edge="1" parent="1" source="8-x5uXMspNHC_fB0zWoQ-56" target="8-x5uXMspNHC_fB0zWoQ-58">
          <mxGeometry relative="1" as="geometry" />
        </mxCell>
        <mxCell id="8-x5uXMspNHC_fB0zWoQ-56" value="&lt;div style=&quot;font-family: Consolas, &amp;quot;Courier New&amp;quot;, monospace; font-size: 14px; line-height: 19px; white-space: pre;&quot;&gt;&lt;span style=&quot;text-align: left;&quot;&gt;MixtralSparseMoeBlock&lt;/span&gt;()&lt;/div&gt;" style="rounded=1;whiteSpace=wrap;html=1;fontFamily=Helvetica;fontSize=11;labelBackgroundColor=none;fillColor=#cce5ff;strokeColor=#36393d;fontColor=default;" vertex="1" parent="1">
          <mxGeometry x="760" y="644" width="180" height="30" as="geometry" />
        </mxCell>
        <mxCell id="8-x5uXMspNHC_fB0zWoQ-63" style="edgeStyle=orthogonalEdgeStyle;rounded=0;orthogonalLoop=1;jettySize=auto;html=1;entryX=0.5;entryY=0;entryDx=0;entryDy=0;strokeColor=default;strokeWidth=2;align=center;verticalAlign=middle;fontFamily=Helvetica;fontSize=11;fontColor=default;labelBackgroundColor=default;endArrow=classic;" edge="1" parent="1" source="8-x5uXMspNHC_fB0zWoQ-58" target="8-x5uXMspNHC_fB0zWoQ-62">
          <mxGeometry relative="1" as="geometry" />
        </mxCell>
        <mxCell id="8-x5uXMspNHC_fB0zWoQ-58" value="&lt;font style=&quot;font-size: 19px;&quot;&gt;+&lt;/font&gt;" style="ellipse;whiteSpace=wrap;html=1;aspect=fixed;fontFamily=Helvetica;fontSize=11;fontColor=default;labelBackgroundColor=default;" vertex="1" parent="1">
          <mxGeometry x="835" y="714" width="30" height="30" as="geometry" />
        </mxCell>
        <mxCell id="8-x5uXMspNHC_fB0zWoQ-62" value="&lt;div style=&quot;font-family: Consolas, &amp;quot;Courier New&amp;quot;, monospace; font-size: 14px; line-height: 19px; white-space: pre;&quot;&gt;return &lt;span style=&quot;text-align: left;&quot;&gt;(hidden_states,)&lt;/span&gt;&lt;/div&gt;" style="rounded=1;whiteSpace=wrap;html=1;fontFamily=Helvetica;fontSize=11;labelBackgroundColor=none;fillColor=#ffff88;strokeColor=#36393d;fontColor=default;" vertex="1" parent="1">
          <mxGeometry x="760" y="784" width="180" height="30" as="geometry" />
        </mxCell>
        <mxCell id="8-x5uXMspNHC_fB0zWoQ-64" value="" style="shape=curlyBracket;whiteSpace=wrap;html=1;rounded=1;labelPosition=left;verticalLabelPosition=middle;align=right;verticalAlign=middle;fontFamily=Helvetica;fontSize=11;fontColor=default;labelBackgroundColor=default;strokeWidth=2;" vertex="1" parent="1">
          <mxGeometry x="693" y="224" width="37" height="590" as="geometry" />
        </mxCell>
      </root>
    </mxGraphModel>
  </diagram>
</mxfile>
